<svg xmlns="http://www.w3.org/2000/svg" viewBox="0 0 198.77 8.25"><defs><style>.cls-1{fill:#bcbec0;}</style></defs><title>ocp-name-grey</title><g id="Layer_2" data-name="Layer 2"><g id="Movie_logos_by_Mavko" data-name="Movie logos by Mavko"><path id="omni_consumer_products" data-name="omni consumer products" class="cls-1" d="M198.77,0V1.05H194V3.6h3.36a2.14,2.14,0,0,1,.5.06,1.5,1.5,0,0,1,.43.18,1,1,0,0,1,.33.29.68.68,0,0,1,.13.4v2.8a.73.73,0,0,1-.13.4,1.32,1.32,0,0,1-.33.29,1.55,1.55,0,0,1-.44.17,2,2,0,0,1-.49.06h-5.11v-1H197V4.65h-3.38a1.59,1.59,0,0,1-.9-.23.77.77,0,0,1-.47-.7V.93a.79.79,0,0,1,.47-.7,1.77,1.77,0,0,1,.9-.23ZM183.15.93v.12h2.39v7.2h1.75V1.05h2.36V0h-6.5Zm-7.49-.7a.81.81,0,0,0-.46.7v6.4a.78.78,0,0,0,.47.69,1.7,1.7,0,0,0,.9.23h4.13v-1H177V1.05h3.75V0h-4.13A1.86,1.86,0,0,0,175.66.23Zm-5.24,7h-3V0h-1.75V7.33a.79.79,0,0,0,.46.69,1.76,1.76,0,0,0,.91.23h3.74a2,2,0,0,0,.49-.06,1.55,1.55,0,0,0,.44-.17,1,1,0,0,0,.32-.29.67.67,0,0,0,.14-.4V0h-1.75ZM162.51.52a.67.67,0,0,1,.13.41v6.4a.66.66,0,0,1-.13.4,1.15,1.15,0,0,1-.33.29,1.55,1.55,0,0,1-.44.17,2,2,0,0,1-.48.06h-5.12V0h5.12a2,2,0,0,1,.48.06,1.92,1.92,0,0,1,.44.17A1.32,1.32,0,0,1,162.51.52Zm-1.62.53h-3V7.2h3ZM153,.52a.67.67,0,0,1,.13.41v6.4a.66.66,0,0,1-.13.4,1.15,1.15,0,0,1-.33.29,1.55,1.55,0,0,1-.44.17,2,2,0,0,1-.48.06H148a1.72,1.72,0,0,1-.9-.23.8.8,0,0,1-.47-.69V.93a.83.83,0,0,1,.47-.7A1.83,1.83,0,0,1,148,0h3.75a2,2,0,0,1,.48.06,1.92,1.92,0,0,1,.44.17A1.32,1.32,0,0,1,153,.52ZM148.36,7.2h3V1.05h-3ZM143.6.52a.68.68,0,0,1,.14.41v2.4a.63.63,0,0,1-.14.4.89.89,0,0,1-.32.29,1.28,1.28,0,0,1-.27.11,1.28,1.28,0,0,1,.27.11,1,1,0,0,1,.32.28.67.67,0,0,1,.14.4V8.25H142V4.65h-3v3.6h-1.75V0h5.12a2,2,0,0,1,.48.06,1.92,1.92,0,0,1,.44.17A1.12,1.12,0,0,1,143.6.52ZM142,1.05h-3V3.6h3ZM134.4.52a.68.68,0,0,1,.14.41V3.72a.68.68,0,0,1-.14.41,1.12,1.12,0,0,1-.32.29,2.11,2.11,0,0,1-.44.17,1.61,1.61,0,0,1-.49.06h-3.36v3.6H128V0h5.11a2,2,0,0,1,.49.06,2.11,2.11,0,0,1,.44.17A1.12,1.12,0,0,1,134.4.52Zm-1.61.53h-3V3.6h3ZM117.47.52a.67.67,0,0,1,.13.41v2.4a.62.62,0,0,1-.13.4,1,1,0,0,1-.33.29,1.28,1.28,0,0,1-.27.11,1.28,1.28,0,0,1,.27.11,1.12,1.12,0,0,1,.33.28.66.66,0,0,1,.13.4V8.25h-1.75V4.65h-3v3.6H111.1V0h5.12a2,2,0,0,1,.48.06,1.92,1.92,0,0,1,.44.17A1.32,1.32,0,0,1,117.47.52Zm-1.62.53h-3V3.6h3Zm-13,7.2h5.5v-1h-3.75V4.65h3.75V3.6h-3.75V1.05h3.75V0h-5.5ZM95,6.7,92.5,0H90.16V8.25h1.75V2.5L94,8.25h1.93L98,2.5V8.25h1.75V0H97.44Zm-9.59.5h-3V0H80.62V7.33a.77.77,0,0,0,.46.69,1.76,1.76,0,0,0,.91.23h3.74a2,2,0,0,0,.49-.06A1.49,1.49,0,0,0,86.65,8,.94.94,0,0,0,87,7.73a.67.67,0,0,0,.14-.4V0H85.37ZM71.66.23a.83.83,0,0,0-.47.7V3.72a.8.8,0,0,0,.47.7,1.61,1.61,0,0,0,.9.23h3.38V7.2H71.19v1h5.12a2.05,2.05,0,0,0,.49-.06A1.67,1.67,0,0,0,77.24,8a1.12,1.12,0,0,0,.32-.29.66.66,0,0,0,.13-.4V4.53a.62.62,0,0,0-.13-.4.89.89,0,0,0-.32-.29,1.7,1.7,0,0,0-.44-.18,2.05,2.05,0,0,0-.49-.06H72.94V1.05h4.75V0H72.56A1.8,1.8,0,0,0,71.66.23Zm-5.15,5.6L64.1,0H61.76V8.25h1.75V2.42l2.41,5.83h2.34V0H66.51ZM58.58.52a.68.68,0,0,1,.14.41v6.4a.67.67,0,0,1-.14.4,1,1,0,0,1-.32.29,1.67,1.67,0,0,1-.44.17,2,2,0,0,1-.49.06H53.59A1.76,1.76,0,0,1,52.68,8a.77.77,0,0,1-.46-.69V.93a.8.8,0,0,1,.46-.7A1.86,1.86,0,0,1,53.59,0h3.74a2,2,0,0,1,.49.06,2.11,2.11,0,0,1,.44.17A1.12,1.12,0,0,1,58.58.52ZM54,7.2h3V1.05H54Zm-9.55-7a.83.83,0,0,0-.47.7v6.4a.8.8,0,0,0,.47.69,1.72,1.72,0,0,0,.9.23h4.14v-1H45.7V1.05h3.76V0H45.32A1.83,1.83,0,0,0,44.42.23Zm-12.66,8h1.75V0H31.76ZM27,5.83,24.54,0H22.2V8.25H24V2.42l2.42,5.83H28.7V0H27ZM14.34,6.7,11.89,0H9.54V8.25h1.75V2.5l2.1,5.75h1.93L17.41,2.5V8.25h1.75V0H16.83ZM6.37.52A.74.74,0,0,1,6.5.93v6.4a.73.73,0,0,1-.13.4A1.15,1.15,0,0,1,6,8a1.55,1.55,0,0,1-.44.17,2,2,0,0,1-.48.06H1.37A1.72,1.72,0,0,1,.47,8,.78.78,0,0,1,0,7.33V.93A.81.81,0,0,1,.47.23,1.83,1.83,0,0,1,1.37,0H5.12A2,2,0,0,1,5.6.06,1.92,1.92,0,0,1,6,.23,1.32,1.32,0,0,1,6.37.52ZM1.75,7.2h3V1.05h-3Z"/></g></g></svg>