<svg xmlns="http://www.w3.org/2000/svg" viewBox="0 0 198.42 198.42"><defs><style>.cls-1{fill:#fff;}</style></defs><title>ocp-logo-white</title><g id="Layer_2" data-name="Layer 2"><g id="Movie_logos_by_Mavko" data-name="Movie logos by Mavko"><path id="OCP_logo_shapes" data-name="OCP logo shapes" class="cls-1" d="M198.42,58.12v82.19l-58.11,58.11H68.25V178.58h63.84l46.49-46.49V66.34l-46.49-46.5H66.34l-46.5,46.5v65.75L45.36,157.6v28.06L0,140.31V58.12L58.12,0h82.19Zm-24.09,72.21V68.1l-44-44H68.1l-44,44v62.23l21.27,21.26V76.9L76.9,45.36h44.62L153.07,76.9v44.62l-31.55,31.55H68.25v21.26h62.08Zm-54.57,18.49,27.7-27.7-15.89-14.89L111,127.56H87.48L70.87,111V87.47l16.61-16.6H111L131.57,91.2l15.89-13.89-27.7-27.7H78.67L49.61,78.66v41.1l29.06,29.06Z"/></g></g></svg>