<svg xmlns="http://www.w3.org/2000/svg" viewBox="0 0 198.77 275.17"><defs><style>.cls-1{fill:#231f20;}</style></defs><title>ocp-logo-achronym-name-black</title><g id="Layer_2" data-name="Layer 2"><g id="Movie_logos_by_Mavko" data-name="Movie logos by Mavko"><path id="omni_consumer_products" data-name="omni consumer products" class="cls-1" d="M198.77,266.92V268H194v2.54h3.36a1.73,1.73,0,0,1,.5.07,1.84,1.84,0,0,1,.43.17,1.32,1.32,0,0,1,.33.29.74.74,0,0,1,.13.41v2.79a.74.74,0,0,1-.13.41,1.32,1.32,0,0,1-.33.29,1.92,1.92,0,0,1-.44.17,2,2,0,0,1-.49.06h-5.11v-1.05H197v-2.55h-3.38a1.68,1.68,0,0,1-.9-.23.78.78,0,0,1-.47-.7v-2.8a.79.79,0,0,1,.47-.69,1.68,1.68,0,0,1,.9-.23Zm-15.62.92V268h2.39v7.2h1.75V268h2.36v-1.05h-6.5Zm-7.49-.69a.81.81,0,0,0-.46.69v6.4a.81.81,0,0,0,.47.7,1.8,1.8,0,0,0,.9.23h4.13v-1.05H177V268h3.75v-1.05h-4.13A1.76,1.76,0,0,0,175.66,267.15Zm-5.24,7h-3v-7.2h-1.75v7.32a.81.81,0,0,0,.46.7,1.86,1.86,0,0,0,.91.23h3.74a2,2,0,0,0,.49-.06,1.92,1.92,0,0,0,.44-.17,1.12,1.12,0,0,0,.32-.29.68.68,0,0,0,.14-.41v-7.32h-1.75Zm-7.91-6.68a.66.66,0,0,1,.13.4v6.4a.67.67,0,0,1-.13.41,1.32,1.32,0,0,1-.33.29,1.92,1.92,0,0,1-.44.17,2,2,0,0,1-.48.06h-5.12v-8.25h5.12a2,2,0,0,1,.48.06,1.3,1.3,0,0,1,.44.17A1.15,1.15,0,0,1,162.51,267.44Zm-1.62.53h-3v6.15h3Zm-7.91-.53a.66.66,0,0,1,.13.4v6.4a.67.67,0,0,1-.13.41,1.32,1.32,0,0,1-.33.29,1.92,1.92,0,0,1-.44.17,2,2,0,0,1-.48.06H148a1.83,1.83,0,0,1-.9-.23.83.83,0,0,1-.47-.7v-6.4a.82.82,0,0,1,.47-.69,1.72,1.72,0,0,1,.9-.23h3.75a2,2,0,0,1,.48.06,1.3,1.3,0,0,1,.44.17A1.15,1.15,0,0,1,153,267.44Zm-4.62,6.68h3V268h-3Zm-4.76-6.68a.67.67,0,0,1,.14.4v2.41a.67.67,0,0,1-.14.4,1,1,0,0,1-.32.29,2.18,2.18,0,0,1-.27.11,2.15,2.15,0,0,1,.27.1,1,1,0,0,1,.32.29.63.63,0,0,1,.14.4v3.33H142v-3.6h-3v3.6h-1.75v-8.25h5.12a2,2,0,0,1,.48.06,1.3,1.3,0,0,1,.44.17A1,1,0,0,1,143.6,267.44ZM142,268h-3v2.54h3Zm-7.59-.53a.67.67,0,0,1,.14.4v2.8a.65.65,0,0,1-.14.4,1,1,0,0,1-.32.29,1.7,1.7,0,0,1-.44.18,2,2,0,0,1-.49.06h-3.36v3.6H128v-8.25h5.11a2,2,0,0,1,.49.06,1.39,1.39,0,0,1,.44.17A1,1,0,0,1,134.4,267.44Zm-1.61.53h-3v2.54h3Zm-15.32-.53a.66.66,0,0,1,.13.4v2.41a.66.66,0,0,1-.13.4,1.15,1.15,0,0,1-.33.29,1.28,1.28,0,0,1-.27.11,2.15,2.15,0,0,1,.27.1,1.15,1.15,0,0,1,.33.29.62.62,0,0,1,.13.4v3.33h-1.75v-3.6h-3v3.6H111.1v-8.25h5.12a2,2,0,0,1,.48.06,1.3,1.3,0,0,1,.44.17A1.15,1.15,0,0,1,117.47,267.44Zm-1.62.53h-3v2.54h3Zm-13,7.2h5.5v-1.05h-3.75v-2.55h3.75v-1.06h-3.75V268h3.75v-1.05h-5.5ZM95,273.62l-2.46-6.7H90.16v8.25h1.75v-5.76l2.1,5.76h1.93L98,269.42v5.75h1.75v-8.25H97.44Zm-9.59.5h-3v-7.2H80.62v7.32a.8.8,0,0,0,.46.7,1.86,1.86,0,0,0,.91.23h3.74a2,2,0,0,0,.49-.06,1.84,1.84,0,0,0,.43-.17,1,1,0,0,0,.33-.29.68.68,0,0,0,.14-.41v-7.32H85.37Zm-13.71-7a.82.82,0,0,0-.47.69v2.8a.81.81,0,0,0,.47.7,1.7,1.7,0,0,0,.9.23h3.38v2.55H71.19v1.05h5.12a2.05,2.05,0,0,0,.49-.06,2.11,2.11,0,0,0,.44-.17,1.12,1.12,0,0,0,.32-.29.67.67,0,0,0,.13-.41v-2.79a.67.67,0,0,0-.13-.41,1.12,1.12,0,0,0-.32-.29,2.11,2.11,0,0,0-.44-.17,1.66,1.66,0,0,0-.49-.07H72.94V268h4.75v-1.05H72.56A1.7,1.7,0,0,0,71.66,267.15Zm-5.15,5.6-2.41-5.83H61.76v8.25h1.75v-5.83l2.41,5.83h2.34v-8.25H66.51Zm-7.93-5.31a.67.67,0,0,1,.14.4v6.4a.68.68,0,0,1-.14.41,1.12,1.12,0,0,1-.32.29,2.11,2.11,0,0,1-.44.17,2,2,0,0,1-.49.06H53.59a1.86,1.86,0,0,1-.91-.23.8.8,0,0,1-.46-.7v-6.4a.79.79,0,0,1,.46-.69,1.76,1.76,0,0,1,.91-.23h3.74a2,2,0,0,1,.49.06,1.39,1.39,0,0,1,.44.17A1,1,0,0,1,58.58,267.44ZM54,274.12h3V268H54Zm-9.55-7a.82.82,0,0,0-.47.69v6.4a.83.83,0,0,0,.47.7,1.83,1.83,0,0,0,.9.23h4.14v-1.05H45.7V268h3.76v-1.05H45.32A1.72,1.72,0,0,0,44.42,267.15Zm-12.66,8h1.75v-8.25H31.76ZM27,272.75l-2.41-5.83H22.2v8.25H24v-5.83l2.42,5.83H28.7v-8.25H27Zm-12.61.87-2.45-6.7H9.54v8.25h1.75v-5.75l2.1,5.75h1.93l2.09-5.75v5.75h1.75v-8.25H16.83Zm-8-6.18a.73.73,0,0,1,.13.4v6.4a.74.74,0,0,1-.13.41,1.32,1.32,0,0,1-.33.29,1.92,1.92,0,0,1-.44.17,2,2,0,0,1-.48.06H1.37a1.83,1.83,0,0,1-.9-.23.81.81,0,0,1-.47-.7v-6.4a.8.8,0,0,1,.47-.69,1.72,1.72,0,0,1,.9-.23H5.12a2,2,0,0,1,.48.06,1.3,1.3,0,0,1,.44.17A1.15,1.15,0,0,1,6.37,267.44Zm-4.62,6.68h3V268h-3Z"/><path id="OCP_letters" data-name="OCP letters" class="cls-1" d="M166.16,217.71h-33v33.67h9.39v-13h23.61a5,5,0,0,0,5-5V222.71A5,5,0,0,0,166.16,217.71Zm-3,11.81c0,1.86-.5,2.36-2.36,2.36H142.55v-7.67h18.23c1.86,0,2.36.5,2.36,2.37Zm-42,9.44v7.42a5,5,0,0,1-5,5h-33a5,5,0,0,1-5-5V222.71a5,5,0,0,1,5-5h33a5,5,0,0,1,5,5v7.42h-8v-3.55c0-1.87-.5-2.37-2.36-2.37H88.55c-1.86,0-2.37.5-2.37,2.37v15.94c0,1.86.51,2.36,2.37,2.36h22.23c1.86,0,2.36-.5,2.36-2.36V239Zm-55-21.25h-33a5,5,0,0,0-5,5v23.67a5,5,0,0,0,5,5h33a5,5,0,0,0,5-5V222.71A5,5,0,0,0,66.16,217.71Zm-3,24.81c0,1.86-.5,2.36-2.36,2.36H38.55c-1.86,0-2.37-.5-2.37-2.36V226.58c0-1.87.51-2.37,2.37-2.37H60.78c1.86,0,2.36.5,2.36,2.37Z"/><path id="OCP_logo_shapes" data-name="OCP logo shapes" class="cls-1" d="M198.54,58.12v82.19l-58.12,58.11h-72V178.58H132.2l46.5-46.49V66.34l-46.5-46.5H66.45L20,66.34v65.75L45.47,157.6v28.06L.12,140.31V58.12L58.23,0h82.19Zm-24.1,72.21V68.1l-44-44H68.21l-44,44v62.23l21.26,21.26V76.9L77,45.36h44.62L153.19,76.9v44.62l-31.55,31.55H68.37v21.26h62.07Zm-54.56,18.49,27.7-27.7-15.9-14.89-20.61,21.33H87.59L71,111V87.47l16.6-16.6h23.48L131.68,91.2l15.9-13.89-27.7-27.7H78.78L49.73,78.66v41.1l29.05,29.06Z"/></g></g></svg>