<svg xmlns="http://www.w3.org/2000/svg" viewBox="0 0 100.22 100.22"><defs><style>.cls-1,.cls-2{fill:#231f20;stroke:#231f20;stroke-miterlimit:2.61;stroke-width:0.22px;}.cls-2{fill-rule:evenodd;}</style></defs><title>ocp-logo-black</title><g id="Layer_2" data-name="Layer 2"><g id="Layer_1-2" data-name="Layer 1"><polygon class="cls-1" points="38.56 100.11 38.56 87.61 65.64 87.61 87.61 65.64 87.61 34.58 65.64 12.61 34.58 12.61 12.61 34.58 12.61 65.64 25.11 78.14 25.11 95.82 0.11 70.82 0.11 29.4 29.4 0.11 70.82 0.11 100.11 29.4 100.11 70.82 70.82 100.11 38.56 100.11"/><polygon class="cls-2" points="25.11 76.02 14.11 65.02 14.11 35.2 35.2 14.11 65.02 14.11 86.11 35.2 86.11 65.02 65.02 86.11 38.56 86.11 38.56 73.92 39.75 75.11 60.46 75.11 75.11 60.46 75.11 39.75 60.46 25.11 39.75 25.11 25.11 39.75 25.11 60.46 25.11 76.02"/><polygon class="cls-2" points="73.61 40.37 59.84 26.61 40.38 26.61 26.61 40.37 26.61 59.84 40.38 73.61 59.84 73.61 73.61 59.84 62.61 55.28 55.28 62.61 44.93 62.61 37.61 55.28 37.61 44.93 44.93 37.61 55.28 37.61 62.61 44.93 73.61 40.37"/></g></g></svg>