<?xml version="1.0" encoding="utf-8"?>
<!-- Generator: Adobe Illustrator 23.0.0, SVG Export Plug-In . SVG Version: 6.00 Build 0)  -->
<svg version="1.1" id="Layer_1" xmlns="http://www.w3.org/2000/svg" xmlns:xlink="http://www.w3.org/1999/xlink" x="0px" y="0px"
	 viewBox="0 0 25 26.8" style="enable-background:new 0 0 25 26.8;" xml:space="preserve">
<style type="text/css">
	.st0{fill:none;stroke:#231F20;stroke-width:1.5;stroke-linecap:round;stroke-linejoin:round;stroke-miterlimit:10;}
</style>
<g>
	<path id="Twitter_2_" class="st0" d="M17.9,19.4h-6c-0.8,0-1.5-0.3-2.1-0.9c-0.6-0.6-0.9-1.3-0.9-2.1v-2.1h8.5c0.8,0,1.4-0.3,2-0.8
		c0.5-0.6,0.8-1.2,0.8-2c0-0.8-0.3-1.4-0.8-2c-0.5-0.5-1.2-0.8-2-0.8H8.9V4.3c0-0.8-0.3-1.5-0.9-2.1C7.4,1.5,6.7,1.2,5.9,1.2
		c-0.8,0-1.6,0.3-2.2,0.9C3.2,2.7,2.9,3.4,2.9,4.3v12.1c0,2.5,0.9,4.6,2.6,6.4c1.8,1.8,3.9,2.7,6.4,2.7h6c0.8,0,1.5-0.3,2.1-0.9
		c0.6-0.6,0.9-1.3,0.9-2.1c0-0.8-0.3-1.5-0.9-2.1C19.4,19.7,18.7,19.4,17.9,19.4z"/>
</g>
</svg>
