<?xml version="1.0" encoding="utf-8"?>
<!-- Generator: Adobe Illustrator 23.0.0, SVG Export Plug-In . SVG Version: 6.00 Build 0)  -->
<svg version="1.1" id="Layer_1" xmlns="http://www.w3.org/2000/svg" xmlns:xlink="http://www.w3.org/1999/xlink" x="0px" y="0px"
	 viewBox="0 0 35.4 45.8" style="enable-background:new 0 0 35.4 45.8;" xml:space="preserve">
<style type="text/css">
	.st0{fill:none;stroke:#231F20;stroke-width:1.5;stroke-linecap:round;stroke-linejoin:round;stroke-miterlimit:10;}
</style>
<g>
	<path id="Facebook_3_" class="st0" d="M12.3,11.1c0,0.9,0,5.1,0,5.1H8.6v6.2h3.7v18.4h7.6V22.4h5.1c0,0,0.5-3,0.7-6.2
		c-0.7,0-5.8,0-5.8,0s0-3.6,0-4.2c0-0.6,0.9-1.5,1.6-1.5c0.9,0,2.6,0,4.1,0c0-0.9,0-3.8,0-6.4c-2.1,0-4.5,0-5.7,0
		C12.1,4,12.3,10.2,12.3,11.1z"/>
</g>
</svg>
