<?xml version="1.0" encoding="utf-8"?>
<!-- Generator: Adobe Illustrator 23.0.0, SVG Export Plug-In . SVG Version: 6.00 Build 0)  -->
<svg version="1.1" id="Layer_1" xmlns="http://www.w3.org/2000/svg" xmlns:xlink="http://www.w3.org/1999/xlink" x="0px" y="0px"
	 viewBox="0 0 29.3 30.5" style="enable-background:new 0 0 29.3 30.5;" xml:space="preserve">
<g>
	<path d="M14.5,8.1c-3.8,0-7,3.1-7,7s3.1,7,7,7s7-3.2,7-7S18.4,8.1,14.5,8.1z M14.5,19.5c-2.4,0-4.5-2-4.5-4.5s2-4.5,4.5-4.5
		s4.5,2,4.5,4.5S17,19.5,14.5,19.5z"/>
	<circle cx="21.8" cy="7.9" r="1.6"/>
	<path d="M25.9,3.9c-1.4-1.5-3.4-2.2-5.7-2.2H8.9C4.2,1.6,1,4.8,1,9.5v11.2C1,23,1.8,25,3.3,26.5c1.5,1.4,3.4,2.1,5.7,2.1h11.1
		c2.3,0,4.3-0.8,5.7-2.1c1.5-1.4,2.2-3.4,2.2-5.8V9.5C28,7.2,27.3,5.3,25.9,3.9z M25.7,20.7c0,1.7-0.6,3-1.6,4c-1,0.9-2.3,1.4-4,1.4
		H9c-1.6,0-3-0.5-4-1.4c-1-1-1.5-2.3-1.5-4V9.5c0-1.6,0.5-3,1.5-4c0.9-0.9,2.3-1.4,4-1.4h11.2c1.6,0,3,0.5,4,1.5
		c0.9,1,1.5,2.3,1.5,3.9V20.7L25.7,20.7z"/>
</g>
</svg>
