<?xml version="1.0" encoding="utf-8"?>
<!-- Generator: Adobe Illustrator 23.0.0, SVG Export Plug-In . SVG Version: 6.00 Build 0)  -->
<svg version="1.1" id="Layer_1" xmlns="http://www.w3.org/2000/svg" xmlns:xlink="http://www.w3.org/1999/xlink" x="0px" y="0px"
	 viewBox="0 0 210 210" style="enable-background:new 0 0 210 210;" xml:space="preserve">
<style type="text/css">
	.st0{fill:#231F20;stroke:#231F20;stroke-width:0.22;stroke-miterlimit:2.61;}
	.st1{fill-rule:evenodd;clip-rule:evenodd;fill:#231F20;stroke:#231F20;stroke-width:0.22;stroke-miterlimit:2.61;}
</style>
<title>ocp-logo-black</title>
<g>
	<g id="Layer_1-2">
		<polygon class="st0" points="81.9,205 81.9,180 136.1,180 180,136.1 180,73.9 136.1,30 73.9,30 30,73.9 30,136.1 55,161.1 
			55,196.4 5,146.4 5,63.6 63.6,5 146.4,5 205,63.6 205,146.4 146.4,205 		"/>
		<polygon class="st1" points="55,156.8 33,134.8 33,75.2 75.2,33 134.8,33 177,75.2 177,134.8 134.8,177 81.9,177 81.9,152.6 
			84.3,155 125.7,155 155,125.7 155,84.3 125.7,55 84.3,55 55,84.3 55,125.7 		"/>
		<polygon class="st1" points="152,85.5 124.5,58 85.5,58 58,85.5 58,124.5 85.5,152 124.5,152 152,124.5 130,115.3 115.3,130 
			94.6,130 80,115.3 80,94.6 94.6,80 115.3,80 130,94.6 		"/>
	</g>
</g>
</svg>
