<?xml version="1.0" encoding="utf-8"?>
<!-- Generator: Adobe Illustrator 23.0.0, SVG Export Plug-In . SVG Version: 6.00 Build 0)  -->
<svg version="1.1" id="Layer_1" xmlns="http://www.w3.org/2000/svg" xmlns:xlink="http://www.w3.org/1999/xlink" x="0px" y="0px"
	 viewBox="0 0 30.8 29.6" style="enable-background:new 0 0 30.8 29.6;" xml:space="preserve">
<style type="text/css">
	.st0{fill:#FFFFFF;stroke:#201600;stroke-width:1.5;stroke-miterlimit:10;}
</style>
<path class="st0" d="M15.7,27.3c-0.1,0-0.1,0-0.2,0l0,0c0,0-0.1,0-0.1,0c-1.6,0-2.6-0.7-3.6-1.4c-0.7-0.5-1.3-0.9-2.1-1.1
	c-0.4-0.1-0.7-0.1-1.1-0.1c-0.6,0-1.2,0.1-1.5,0.2c-0.2,0-0.4,0.1-0.6,0.1c-0.2,0-0.3,0-0.4-0.3C6,24.5,6,24.3,5.9,24.1
	c-0.1-0.5-0.2-0.8-0.4-0.9c-2.5-0.4-3.3-0.9-3.4-1.3c0-0.1,0-0.1,0-0.2c0-0.1,0.1-0.3,0.2-0.3c3.9-0.6,5.6-4.6,5.7-4.8c0,0,0,0,0,0
	c0.2-0.5,0.3-0.9,0.1-1.2c-0.3-0.6-1.1-0.9-1.7-1.1c-0.1,0-0.3-0.1-0.4-0.1c-1.2-0.5-1.2-0.9-1.2-1.2c0.1-0.4,0.6-0.7,1.1-0.7
	c0.1,0,0.2,0,0.3,0.1c0.5,0.2,1,0.4,1.4,0.4c0.6,0,0.8-0.2,0.8-0.3c0-0.3,0-0.5-0.1-0.8C8.3,9.8,8.1,7.5,8.7,6.2
	C10.5,2.3,14.2,2,15.3,2c0,0,0.5,0,0.5,0h0.1c1.1,0,4.8,0.3,6.6,4.2c0.6,1.3,0.4,3.6,0.3,5.4l0,0.1c0,0.3,0,0.5,0,0.7
	c0,0,0.3,0.2,0.8,0.3l0,0c0.4,0,0.8-0.1,1.3-0.4c0.1-0.1,0.3-0.1,0.4-0.1c0.2,0,0.3,0,0.5,0.1l0,0c0.4,0.1,0.6,0.4,0.7,0.7
	c0,0.3-0.2,0.7-1.2,1.1c-0.1,0-0.2,0.1-0.4,0.1c-0.6,0.2-1.5,0.5-1.7,1.1c-0.1,0.3-0.1,0.8,0.1,1.2c0,0,0,0,0,0
	c0.1,0.2,1.8,4.2,5.7,4.8c0.1,0,0.2,0.1,0.2,0.3c0,0.1,0,0.1,0,0.2c-0.2,0.4-0.9,0.9-3.4,1.3c-0.2,0-0.3,0.3-0.4,0.9
	c0,0.2-0.1,0.4-0.2,0.6c-0.1,0.2-0.2,0.3-0.4,0.3h0c-0.1,0-0.3,0-0.6-0.1c-0.4-0.1-0.9-0.2-1.5-0.2c-0.4,0-0.7,0-1.1,0.1
	c-0.8,0.1-1.4,0.6-2.1,1.1C18.3,26.6,17.3,27.3,15.7,27.3z"/>
</svg>
