<svg xmlns="http://www.w3.org/2000/svg" viewBox="0 0 143 33.67"><defs><style>.cls-1{fill:#231f20;}</style></defs><title>ocp-achronym-black</title><g id="Layer_2" data-name="Layer 2"><g id="Movie_logos_by_Mavko" data-name="Movie logos by Mavko"><path id="OCP_letters" data-name="OCP letters" class="cls-1" d="M138,0H105V33.67h9.39v-13H138a5,5,0,0,0,5-5V5A5,5,0,0,0,138,0Zm-3,11.8c0,1.87-.51,2.37-2.37,2.37H114.39V6.49h18.22c1.86,0,2.37.51,2.37,2.37ZM93,21.25v7.42a5,5,0,0,1-5,5H55a5,5,0,0,1-5-5V5a5,5,0,0,1,5-5H88a5,5,0,0,1,5,5v7.42H85V8.86c0-1.86-.51-2.37-2.37-2.37H60.39C58.53,6.49,58,7,58,8.86V24.8c0,1.87.51,2.37,2.37,2.37H82.61c1.86,0,2.37-.5,2.37-2.37V21.25ZM38,0H5A5,5,0,0,0,0,5V28.67a5,5,0,0,0,5,5H38a5,5,0,0,0,5-5V5A5,5,0,0,0,38,0ZM35,24.8c0,1.87-.51,2.37-2.37,2.37H10.39C8.53,27.17,8,26.67,8,24.8V8.86C8,7,8.53,6.49,10.39,6.49H32.61C34.47,6.49,35,7,35,8.86Z"/></g></g></svg>